<svg width="27" height="27" viewBox="0 0 27 27" fill="none" xmlns="http://www.w3.org/2000/svg">
<path d="M9.19837 16.3899C9.56292 16.0996 10.0938 16.1598 10.384 16.5244C11.1146 17.4421 12.2387 18.0279 13.5001 18.0279C14.7615 18.0279 15.8856 17.4421 16.6162 16.5244C16.9065 16.1598 17.4374 16.0996 17.8019 16.3899C18.1665 16.6801 18.2267 17.2109 17.9364 17.5754C16.8994 18.878 15.2973 19.7154 13.5001 19.7154C11.703 19.7154 10.1009 18.878 9.06382 17.5754C8.77357 17.2109 8.83381 16.6801 9.19837 16.3899Z" fill="black"/>
<path d="M7.82275 9.17657C7.35676 9.17657 6.979 9.55433 6.979 10.0203V12.218C6.979 13.0886 7.68474 13.7943 8.55531 13.7943H10.5625C11.4331 13.7943 12.1388 13.0886 12.1388 12.218V10.8641H14.8613V12.218C14.8613 13.0886 15.567 13.7943 16.4377 13.7943H18.4448C19.3154 13.7943 20.0211 13.0886 20.0211 12.218V10.0203C20.0211 9.55433 19.6434 9.17657 19.1774 9.17657H7.82275Z" fill="black"/>
<path fill-rule="evenodd" clip-rule="evenodd" d="M2.25 13.5C2.25 7.28679 7.28679 2.25 13.5 2.25C19.7131 2.25 24.75 7.28679 24.75 13.5C24.75 19.7131 19.7131 24.75 13.5 24.75C7.28679 24.75 2.25 19.7131 2.25 13.5ZM13.5 3.9375C8.21878 3.9375 3.9375 8.21878 3.9375 13.5C3.9375 18.7812 8.21878 23.0625 13.5 23.0625C18.7812 23.0625 23.0625 18.7812 23.0625 13.5C23.0625 8.21878 18.7812 3.9375 13.5 3.9375Z" fill="black"/>
</svg>
