<svg width="27" height="27" viewBox="0 0 27 27" fill="none" xmlns="http://www.w3.org/2000/svg">
<path d="M10.8772 10.3866C10.8772 9.60994 10.2476 8.98035 9.47095 8.98035C8.6943 8.98035 8.0647 9.60994 8.0647 10.3866C8.0647 11.1632 8.6943 11.793 9.47095 11.793C10.2476 11.793 10.8772 11.1632 10.8772 10.3866Z" fill="black"/>
<path d="M9.10474 16.0182C8.63875 16.0182 8.26099 16.396 8.26099 16.8619C8.26099 17.3279 8.63875 17.7057 9.10474 17.7057H17.8955C18.3614 17.7057 18.7392 17.3279 18.7392 16.8619C18.7392 16.396 18.3614 16.0182 17.8955 16.0182H9.10474Z" fill="black"/>
<path d="M17.5291 8.98035C18.3058 8.98035 18.9353 9.60994 18.9353 10.3866C18.9353 11.1632 18.3058 11.793 17.5291 11.793C16.7524 11.793 16.1228 11.1634 16.1228 10.3867C16.1228 9.61005 16.7524 8.98035 17.5291 8.98035Z" fill="black"/>
<path fill-rule="evenodd" clip-rule="evenodd" d="M13.5 2.25C7.28679 2.25 2.25 7.28679 2.25 13.5C2.25 19.7132 7.28679 24.75 13.5 24.75C19.7132 24.75 24.75 19.7132 24.75 13.5C24.75 7.28679 19.7132 2.25 13.5 2.25ZM3.9375 13.5C3.9375 8.21878 8.21878 3.9375 13.5 3.9375C18.7812 3.9375 23.0625 8.21878 23.0625 13.5C23.0625 18.7812 18.7812 23.0625 13.5 23.0625C8.21878 23.0625 3.9375 18.7812 3.9375 13.5Z" fill="black"/>
</svg>
