<svg width="27" height="27" viewBox="0 0 27 27" fill="none" xmlns="http://www.w3.org/2000/svg">
<path d="M11.25 10.3866C11.25 9.60997 10.6204 8.98038 9.84375 8.98038C9.06709 8.98038 8.4375 9.60997 8.4375 10.3866C8.4375 11.1633 9.06709 11.793 9.84375 11.793C10.6204 11.793 11.25 11.1633 11.25 10.3866Z" fill="black"/>
<path d="M17.1562 8.98038C17.933 8.98038 18.5625 9.60997 18.5625 10.3866C18.5625 11.1633 17.933 11.793 17.1562 11.793C16.3797 11.793 15.75 11.1634 15.75 10.3867C15.75 9.61008 16.3797 8.98038 17.1562 8.98038Z" fill="black"/>
<path d="M10.384 18.2983C10.0938 18.663 9.56292 18.7231 9.19837 18.4329C8.83381 18.1426 8.77357 17.6119 9.06382 17.2473C10.1009 15.9447 11.703 15.1074 13.5001 15.1074C15.2973 15.1074 16.8994 15.9447 17.9364 17.2473C18.2267 17.6119 18.1665 18.1426 17.8019 18.4329C17.4374 18.7231 16.9065 18.663 16.6162 18.2983C15.8856 17.3807 14.7615 16.7949 13.5001 16.7949C12.2387 16.7949 11.1146 17.3807 10.384 18.2983Z" fill="black"/>
<path fill-rule="evenodd" clip-rule="evenodd" d="M13.5 2.25C7.28679 2.25 2.25 7.28679 2.25 13.5C2.25 19.7132 7.28679 24.75 13.5 24.75C19.7132 24.75 24.75 19.7132 24.75 13.5C24.75 7.28679 19.7132 2.25 13.5 2.25ZM3.9375 13.5C3.9375 8.21878 8.21878 3.9375 13.5 3.9375C18.7812 3.9375 23.0625 8.21878 23.0625 13.5C23.0625 18.7812 18.7812 23.0625 13.5 23.0625C8.21878 23.0625 3.9375 18.7812 3.9375 13.5Z" fill="black"/>
</svg>
