<svg width="27" height="27" viewBox="0 0 27 27" fill="none" xmlns="http://www.w3.org/2000/svg">
<path d="M19.1402 17.1266C19.405 16.7432 19.3088 16.2176 18.9254 15.9529C18.5419 15.6881 18.0164 15.7842 17.7516 16.1677C16.6339 17.7861 14.7685 18.8437 12.6562 18.8437C12.1903 18.8437 11.8125 19.2215 11.8125 19.6875C11.8125 20.1535 12.1903 20.5312 12.6562 20.5312C15.3462 20.5312 17.7209 19.1817 19.1402 17.1266Z" fill="black"/>
<path d="M9.84375 8.98041C10.6204 8.98041 11.25 9.61 11.25 10.3867C11.25 11.1633 10.6204 11.7931 9.84375 11.7931C9.0671 11.7931 8.4375 11.1634 8.4375 10.3868C8.4375 9.61012 9.0671 8.98041 9.84375 8.98041Z" fill="black"/>
<path d="M18.5625 10.3867C18.5625 9.61 17.9328 8.98041 17.1562 8.98041C16.3795 8.98041 15.75 9.61 15.75 10.3867C15.75 11.1633 16.3795 11.7931 17.1562 11.7931C17.9328 11.7931 18.5625 11.1633 18.5625 10.3867Z" fill="black"/>
<path fill-rule="evenodd" clip-rule="evenodd" d="M13.5 2.25C7.28679 2.25 2.25 7.28679 2.25 13.5C2.25 19.7132 7.28679 24.75 13.5 24.75C19.7132 24.75 24.75 19.7132 24.75 13.5C24.75 7.28679 19.7132 2.25 13.5 2.25ZM3.9375 13.5C3.9375 8.21878 8.21878 3.9375 13.5 3.9375C18.7812 3.9375 23.0625 8.21878 23.0625 13.5C23.0625 18.7812 18.7812 23.0625 13.5 23.0625C8.21878 23.0625 3.9375 18.7812 3.9375 13.5Z" fill="black"/>
</svg>
