<svg width="33" height="37" viewBox="0 0 33 37" fill="none" xmlns="http://www.w3.org/2000/svg">
<path d="M7.4209 20.2713C7.4209 19.4382 8.09631 18.7627 8.92947 18.7627H8.94833C9.78149 18.7627 10.4569 19.4382 10.4569 20.2713C10.4569 21.1044 9.78149 21.7798 8.94833 21.7798H8.92947C8.09631 21.7798 7.4209 21.1044 7.4209 20.2713Z" fill="#115544"/>
<path d="M8.92947 26.3057C8.09631 26.3057 7.4209 26.9811 7.4209 27.8142C7.4209 28.6473 8.09631 29.3228 8.92947 29.3228H8.94833C9.78149 29.3228 10.4569 28.6473 10.4569 27.8142C10.4569 26.9811 9.78149 26.3057 8.94833 26.3057H8.92947Z" fill="#115544"/>
<path d="M14.9819 20.2713C14.9819 19.4382 15.6574 18.7627 16.4905 18.7627H16.5094C17.3425 18.7627 18.0179 19.4382 18.0179 20.2713C18.0179 21.1044 17.3425 21.7798 16.5094 21.7798H16.4905C15.6574 21.7798 14.9819 21.1044 14.9819 20.2713Z" fill="#115544"/>
<path d="M16.4905 26.3057C15.6574 26.3057 14.9819 26.9811 14.9819 27.8142C14.9819 28.6473 15.6574 29.3228 16.4905 29.3228H16.5094C17.3425 29.3228 18.0179 28.6473 18.0179 27.8142C18.0179 26.9811 17.3425 26.3057 16.5094 26.3057H16.4905Z" fill="#115544"/>
<path d="M22.5435 20.2713C22.5435 19.4382 23.2189 18.7627 24.052 18.7627H24.0709C24.904 18.7627 25.5795 19.4382 25.5795 20.2713C25.5795 21.1044 24.904 21.7798 24.0709 21.7798H24.052C23.2189 21.7798 22.5435 21.1044 22.5435 20.2713Z" fill="#115544"/>
<path d="M24.052 26.3057C23.2189 26.3057 22.5435 26.9811 22.5435 27.8142C22.5435 28.6473 23.2189 29.3228 24.052 29.3228H24.0709C24.904 29.3228 25.5795 28.6473 25.5795 27.8142C25.5795 26.9811 24.904 26.3057 24.0709 26.3057H24.052Z" fill="#115544"/>
<path fill-rule="evenodd" clip-rule="evenodd" d="M10.3714 1.41429C10.3714 0.633204 9.73822 0 8.95714 0C8.17606 0 7.54286 0.633204 7.54286 1.41429V3.3H4.24286C1.89959 3.3 0 5.19959 0 7.54286V32.0571C0 34.4003 1.89959 36.3 4.24286 36.3H28.7571C31.1003 36.3 33 34.4003 33 32.0571V7.54286C33 5.19959 31.1003 3.3 28.7571 3.3H25.4571V1.41429C25.4571 0.633204 24.8239 0 24.0429 0C23.2618 0 22.6286 0.633204 22.6286 1.41429V3.3H10.3714V1.41429ZM30.1714 11.7857V7.54286C30.1714 6.76178 29.5382 6.12857 28.7571 6.12857H4.24286C3.46178 6.12857 2.82857 6.76178 2.82857 7.54286V11.7857H30.1714ZM2.82857 14.6143H30.1714V32.0571C30.1714 32.8382 29.5382 33.4714 28.7571 33.4714H4.24286C3.46178 33.4714 2.82857 32.8382 2.82857 32.0571V14.6143Z" fill="#115544"/>
</svg>
