<svg width="37" height="32" viewBox="0 0 37 32" fill="none" xmlns="http://www.w3.org/2000/svg">
<path fill-rule="evenodd" clip-rule="evenodd" d="M9.86315 4.32129C9.86315 1.93471 11.7262 0 14.0244 0H16.9526C19.2173 0 21.0593 1.87849 21.1128 4.21679C21.5334 3.88219 22.0227 3.62595 22.5663 3.4747L26.7346 2.31485C28.9545 1.69715 31.2361 3.0652 31.8311 5.37046L36.8572 24.8493C37.452 27.1546 36.1346 29.5242 33.9147 30.1419L29.7462 31.3017C27.5263 31.9194 25.2447 30.5513 24.6499 28.2461L21.1139 14.5428V26.888C21.1139 29.2745 19.251 31.2093 16.9526 31.2093H14.0244C12.9588 31.2093 11.9867 30.7933 11.2505 30.1092C10.5144 30.7933 9.54229 31.2093 8.47665 31.2093H4.16127C1.86306 31.2093 0 29.2745 0 26.888V8.64258C0 6.256 1.86306 4.32129 4.16127 4.32129H8.47665C8.9628 4.32129 9.42947 4.40785 9.86315 4.56695V4.32129ZM9.86315 26.888V8.59971C9.84131 7.82401 9.22892 7.20215 8.47665 7.20215H4.16127C3.39521 7.20215 2.77418 7.84706 2.77418 8.64258V26.888C2.77418 27.6835 3.39521 28.3285 4.16127 28.3285H8.47665C9.23077 28.3285 9.84432 27.7035 9.8633 26.9251L9.86315 26.888ZM14.0244 28.3285C13.2703 28.3285 12.6567 27.7035 12.6378 26.9251L12.6379 26.888V8.64258C12.6379 8.61777 12.6377 8.59301 12.6373 8.56831V4.32129C12.6373 3.52577 13.2583 2.88086 14.0244 2.88086H16.9526C17.7189 2.88086 18.3397 3.52577 18.3397 4.32129V26.888C18.3397 27.6835 17.7189 28.3285 16.9526 28.3285H14.0244ZM22.3035 8.02156C22.105 7.25314 22.5443 6.46331 23.2842 6.2574L27.4525 5.09755C28.1925 4.89164 28.9532 5.34766 29.1514 6.11609L34.1775 25.5949C34.3758 26.3633 33.9365 27.1533 33.1966 27.3591L29.0283 28.519C28.2883 28.7249 27.5278 28.2689 27.3295 27.5005L22.3035 8.02156Z" fill="#56AEF6"/>
</svg>
