<svg width="44" height="44" viewBox="0 0 44 44" fill="none" xmlns="http://www.w3.org/2000/svg">
<path d="M26.9788 21.112C25.5096 21.112 24.1542 20.625 23.0649 19.8038C23.579 19.0609 23.986 18.2381 24.2633 17.358C24.9615 18.0468 25.9205 18.4719 26.9788 18.4719C29.1142 18.4719 30.8454 16.7407 30.8454 14.6053C30.8454 12.4698 29.1142 10.7386 26.9788 10.7386C25.9205 10.7386 24.9615 11.1638 24.2633 11.8526C23.986 10.9724 23.579 10.1498 23.0649 9.40688C24.154 8.58559 25.5096 8.09863 26.9788 8.09863C30.5722 8.09863 33.4854 11.0117 33.4854 14.6053C33.4854 18.1988 30.5722 21.112 26.9788 21.112Z" fill="#115544"/>
<path d="M25.9992 24.0927C26.4399 24.529 26.8336 24.9822 27.1855 25.4435C29.5599 25.4893 31.2648 26.0731 32.5028 26.8665C33.7976 27.6963 34.6616 28.8071 35.2426 29.9495C35.8271 31.0988 36.1159 32.2639 36.2563 33.153C36.326 33.5944 36.3579 33.9591 36.3723 34.2082C36.3795 34.3324 36.3822 34.4273 36.3834 34.4875L36.3837 34.5243L36.3839 34.551V34.5598L37.6986 34.5814C36.3955 34.5589 36.3841 34.5593 36.3839 34.5598V34.5621C36.3732 35.2895 36.9531 35.8888 37.6809 35.9013C38.4097 35.9139 39.0109 35.3333 39.0236 34.6045L37.714 34.5818C39.0236 34.6045 39.0236 34.6052 39.0236 34.6045V34.6013L39.0237 34.5971V34.5858L39.0239 34.5521C39.0239 34.5246 39.0237 34.4873 39.0229 34.4406C39.0213 34.3477 39.0172 34.2177 39.0079 34.0559C38.9893 33.733 38.9493 33.2805 38.8641 32.741C38.6946 31.6686 38.3412 30.2186 37.5957 28.7527C36.8468 27.2799 35.6929 25.7753 33.9271 24.6438C32.1566 23.5089 29.8503 22.8005 26.8822 22.8005C26.098 22.8005 25.3602 22.85 24.666 22.9436C25.1419 23.2995 25.5861 23.6835 25.9992 24.0927Z" fill="#115544"/>
<path fill-rule="evenodd" clip-rule="evenodd" d="M9.03174 14.6055C9.03174 11.012 11.9448 8.09888 15.5384 8.09888C19.1318 8.09888 22.0449 11.012 22.0449 14.6055C22.0449 18.199 19.1318 21.1121 15.5384 21.1121C11.9448 21.1121 9.03174 18.199 9.03174 14.6055ZM15.5384 10.7389C13.4029 10.7389 11.6717 12.47 11.6717 14.6055C11.6717 16.741 13.4029 18.4721 15.5384 18.4721C17.6738 18.4721 19.4049 16.741 19.4049 14.6055C19.4049 12.47 17.6738 10.7389 15.5384 10.7389Z" fill="#115544"/>
<path d="M5.93984 34.5618C5.95082 35.2892 5.3708 35.8888 4.6429 35.9015C3.91399 35.9142 3.31285 35.3336 3.30019 34.6046L4.62 34.5817C3.30019 34.6046 3.30021 34.6053 3.30019 34.6046L3.30014 34.6014L3.30009 34.5972L3.29996 34.5859L3.29981 34.5521C3.29979 34.5247 3.30002 34.4874 3.30084 34.4409C3.3025 34.3478 3.30653 34.2179 3.31587 34.056C3.33455 33.733 3.37452 33.2805 3.4597 32.7413C3.6291 31.6687 3.98255 30.2187 4.72801 28.7527C5.47703 27.28 6.63075 25.7755 8.39654 24.6439C10.1671 23.5092 12.4734 22.8008 15.4416 22.8008C18.4098 22.8008 20.7161 23.5092 22.4868 24.6439C24.2524 25.7755 25.4063 27.28 26.1552 28.7527C26.9007 30.2187 27.2541 31.6687 27.4236 32.7413C27.5088 33.2805 27.5487 33.733 27.5674 34.056C27.5767 34.2179 27.5808 34.3478 27.5824 34.4409C27.5832 34.4874 27.5834 34.5247 27.5834 34.5521L27.5832 34.5859V34.5972L27.5831 34.6014C27.5831 34.6021 27.5831 34.6046 26.2734 34.5819L27.5831 34.6046C27.5704 35.3336 26.9692 35.9142 26.2404 35.9015C25.5126 35.8888 24.9327 35.2896 24.9434 34.5622V34.56C24.9436 34.5595 24.955 34.559 26.2588 34.5817L24.9434 34.56V34.5512L24.9432 34.5243L24.9429 34.4875C24.9418 34.4273 24.939 34.3327 24.9318 34.2084C24.9174 33.9594 24.8855 33.5945 24.8158 33.1531C24.6754 32.2641 24.3865 31.099 23.802 29.9495C23.2211 28.8071 22.3571 27.6964 21.0623 26.8666C19.7722 26.0399 17.975 25.4408 15.4416 25.4408C12.9082 25.4408 11.111 26.0399 9.82099 26.8666C8.52618 27.6964 7.66219 28.8071 7.08118 29.9495C6.49667 31.099 6.2078 32.2641 6.06739 33.1531C5.99766 33.5945 5.96587 33.9594 5.95147 34.2084C5.94431 34.3327 5.9415 34.4273 5.94044 34.4875C5.93989 34.5176 5.93981 34.5391 5.93981 34.5512L5.93984 34.5618Z" fill="#115544"/>
</svg>
