<svg width="44" height="44" viewBox="0 0 44 44" fill="none" xmlns="http://www.w3.org/2000/svg">
<path d="M26.9788 21.1121C25.5096 21.1121 24.1542 20.6251 23.0649 19.8039C23.579 19.061 23.986 18.2382 24.2633 17.3581C24.9615 18.0469 25.9205 18.472 26.9788 18.472C29.1142 18.472 30.8454 16.7409 30.8454 14.6054C30.8454 12.4699 29.1142 10.7387 26.9788 10.7387C25.9205 10.7387 24.9615 11.1639 24.2633 11.8527C23.986 10.9726 23.579 10.1499 23.0649 9.40698C24.154 8.5857 25.5096 8.09874 26.9788 8.09874C30.5722 8.09874 33.4854 11.0119 33.4854 14.6054C33.4854 18.1989 30.5722 21.1121 26.9788 21.1121Z" fill="#56AEF6"/>
<path d="M25.9992 24.0928C26.4399 24.5291 26.8336 24.9823 27.1855 25.4436C29.5599 25.4894 31.2648 26.0732 32.5028 26.8666C33.7976 27.6964 34.6616 28.8072 35.2426 29.9496C35.8271 31.0989 36.1159 32.264 36.2563 33.1531C36.326 33.5945 36.3579 33.9592 36.3723 34.2082C36.3795 34.3325 36.3822 34.4274 36.3834 34.4876L36.3837 34.5243L36.3839 34.5511V34.5599L37.6986 34.5815C36.3955 34.559 36.3841 34.5594 36.3839 34.5599V34.5622C36.3732 35.2896 36.9531 35.8889 37.6809 35.9014C38.4097 35.914 39.0109 35.3334 39.0236 34.6046L37.714 34.5819C39.0236 34.6046 39.0236 34.6053 39.0236 34.6046V34.6014L39.0237 34.5972V34.5859L39.0239 34.5522C39.0239 34.5247 39.0237 34.4874 39.0229 34.4407C39.0213 34.3478 39.0172 34.2177 39.0079 34.056C38.9893 33.733 38.9493 33.2805 38.8641 32.7411C38.6946 31.6687 38.3412 30.2187 37.5957 28.7528C36.8468 27.28 35.6929 25.7754 33.9271 24.6439C32.1566 23.509 29.8503 22.8006 26.8822 22.8006C26.098 22.8006 25.3602 22.8501 24.666 22.9437C25.1419 23.2996 25.5861 23.6836 25.9992 24.0928Z" fill="#56AEF6"/>
<path fill-rule="evenodd" clip-rule="evenodd" d="M9.03186 14.6054C9.03186 11.0119 11.945 8.09882 15.5385 8.09882C19.1319 8.09882 22.0451 11.0119 22.0451 14.6054C22.0451 18.1989 19.1319 21.1121 15.5385 21.1121C11.945 21.1121 9.03186 18.1989 9.03186 14.6054ZM15.5385 10.7388C13.403 10.7388 11.6719 12.47 11.6719 14.6054C11.6719 16.7409 13.403 18.4721 15.5385 18.4721C17.6739 18.4721 19.4051 16.7409 19.4051 14.6054C19.4051 12.47 17.6739 10.7388 15.5385 10.7388Z" fill="#56AEF6"/>
<path d="M5.94009 34.5618C5.95107 35.2892 5.37104 35.8889 4.64314 35.9015C3.91424 35.9142 3.31309 35.3336 3.30044 34.6046L4.62024 34.5817C3.30044 34.6046 3.30045 34.6053 3.30044 34.6046L3.30038 34.6014L3.30033 34.5972L3.30021 34.5859L3.30005 34.5521C3.30003 34.5247 3.30026 34.4874 3.30109 34.4409C3.30274 34.3478 3.30677 34.2179 3.31612 34.056C3.33479 33.733 3.37476 33.2805 3.45995 32.7413C3.62935 31.6687 3.98279 30.2187 4.72825 28.7528C5.47728 27.28 6.63099 25.7755 8.39678 24.6439C10.1674 23.5092 12.4736 22.8008 15.4419 22.8008C18.41 22.8008 20.7163 23.5092 22.487 24.6439C24.2527 25.7755 25.4065 27.28 26.1554 28.7528C26.9009 30.2187 27.2544 31.6687 27.4238 32.7413C27.509 33.2805 27.549 33.733 27.5676 34.056C27.577 34.2179 27.581 34.3478 27.5826 34.4409C27.5835 34.4874 27.5837 34.5247 27.5837 34.5521L27.5835 34.5859V34.5972L27.5833 34.6014C27.5833 34.6021 27.5833 34.6046 26.2737 34.5819L27.5833 34.6046C27.5706 35.3336 26.9694 35.9142 26.2406 35.9015C25.5128 35.8889 24.9329 35.2896 24.9437 34.5622V34.5601C24.9438 34.5595 24.9553 34.559 26.2591 34.5817L24.9437 34.5601V34.5513L24.9435 34.5243L24.9431 34.4875C24.9421 34.4274 24.9393 34.3327 24.932 34.2084C24.9176 33.9594 24.8857 33.5945 24.8161 33.1531C24.6756 32.2641 24.3868 31.099 23.8023 29.9496C23.2213 28.8071 22.3573 27.6964 21.0625 26.8666C19.7724 26.0399 17.9753 25.4408 15.4419 25.4408C12.9085 25.4408 11.1113 26.0399 9.82124 26.8666C8.52642 27.6964 7.66244 28.8071 7.08143 29.9496C6.49691 31.099 6.20805 32.2641 6.06763 33.1531C5.9979 33.5945 5.96612 33.9594 5.95172 34.2084C5.94456 34.3327 5.94174 34.4274 5.94068 34.4875C5.94014 34.5176 5.94005 34.5391 5.94005 34.5513L5.94009 34.5618Z" fill="#56AEF6"/>
</svg>
