<svg width="41" height="33" viewBox="0 0 41 33" fill="none" xmlns="http://www.w3.org/2000/svg">
<path fill-rule="evenodd" clip-rule="evenodd" d="M20.6984 0.123751C20.3165 -0.0412504 19.8835 -0.0412504 19.5016 0.123751L0.909163 8.15888C0.357278 8.39739 0 8.94082 0 9.54173C0 10.1426 0.357278 10.6861 0.909163 10.9246L6.28125 13.2462V25.4671C6.28125 25.7599 6.36665 26.0464 6.52701 26.2915L7.78875 25.4671C6.52701 26.2915 6.52659 26.2909 6.52701 26.2915L6.52876 26.2941L6.53089 26.2973L6.53628 26.3055L6.55153 26.3282C6.56372 26.3463 6.57992 26.3698 6.60014 26.3987C6.6406 26.4564 6.69724 26.5353 6.77022 26.6322C6.91611 26.8258 7.12788 27.0924 7.40673 27.4071C7.96354 28.0359 8.79375 28.8639 9.90789 29.6901C12.1437 31.348 15.5291 33 20.1 33C24.6709 33 28.0562 31.348 30.2921 29.6901C31.4062 28.8639 32.2364 28.0359 32.7934 27.4071C33.0721 27.0924 33.2838 26.8258 33.4297 26.6322C33.5027 26.5353 33.5594 26.4564 33.5998 26.3987C33.6201 26.3698 33.6363 26.3463 33.6484 26.3282L33.6637 26.3055L33.6691 26.2973L33.6713 26.2941C33.6717 26.2935 33.6729 26.2915 32.4113 25.4671L33.6729 26.2915C33.8333 26.0464 33.9188 25.7599 33.9188 25.4671V13.2462L37.185 11.8346V23.0423C37.185 23.8743 37.86 24.5488 38.6925 24.5488C39.525 24.5488 40.2 23.8743 40.2 23.0423V9.54565C40.2 9.54498 40.2 9.54631 40.2 9.54565C40.2 9.545 40.2 9.54237 40.2 9.54173C40.2 8.94082 39.8426 8.39739 39.2909 8.15888L20.6984 0.123751ZM30.9037 14.5491L20.6984 18.9596C20.3165 19.1247 19.8835 19.1247 19.5016 18.9596L9.29625 14.5491V24.9717C9.39158 25.092 9.51421 25.2405 9.66436 25.41C10.1083 25.9114 10.7868 26.5898 11.7044 27.2703C13.5321 28.6255 16.3023 29.9868 20.1 29.9868C23.8977 29.9868 26.6679 28.6255 28.4956 27.2703C29.4131 26.5898 30.0917 25.9114 30.5357 25.41C30.6859 25.2405 30.8085 25.092 30.9037 24.9717V14.5491ZM20.1 15.9354L5.30558 9.54173L20.1 3.14801L34.8944 9.54173L20.1 15.9354Z" fill="#2B5E4A"/>
</svg>
