<svg width="41" height="22" viewBox="0 0 41 22" fill="none" xmlns="http://www.w3.org/2000/svg">
<path fill-rule="evenodd" clip-rule="evenodd" d="M11.5575 19.8288C11.5575 20.6521 10.8826 21.3195 10.05 21.3195H7.035C4.53729 21.3195 2.5125 19.3172 2.5125 16.8475V12.3754H1.5075C0.674938 12.3754 0 11.708 0 10.8847C0 10.0615 0.674938 9.39405 1.5075 9.39405H2.5125V4.922C2.5125 2.45216 4.53729 0.449951 7.035 0.449951H10.05C10.8826 0.449951 11.5575 1.11736 11.5575 1.94063V9.39405H28.6425V1.94063C28.6425 1.11736 29.3175 0.449951 30.15 0.449951H33.165C35.6626 0.449951 37.6875 2.45216 37.6875 4.922V9.39405H38.6925C39.525 9.39405 40.2 10.0615 40.2 10.8847C40.2 11.708 39.525 12.3754 38.6925 12.3754H37.6875V16.8475C37.6875 19.3172 35.6626 21.3195 33.165 21.3195H30.15C29.3175 21.3195 28.6425 20.6521 28.6425 19.8288V12.3754H11.5575V19.8288ZM34.6725 4.922C34.6725 4.09873 33.9975 3.43132 33.165 3.43132H31.6575V18.3382H33.165C33.9975 18.3382 34.6725 17.6707 34.6725 16.8475V4.922ZM5.5275 16.8475V4.922C5.5275 4.09873 6.20244 3.43132 7.035 3.43132H8.5425V18.3382H7.035C6.20244 18.3382 5.5275 17.6707 5.5275 16.8475Z" fill="#56AEF6"/>
</svg>
