<svg width="20" height="22" viewBox="0 0 20 22" fill="none" xmlns="http://www.w3.org/2000/svg">
<path d="M4.49756 12.2857C4.49756 11.7808 4.9069 11.3715 5.41184 11.3715H5.42327C5.92822 11.3715 6.33756 11.7808 6.33756 12.2857C6.33756 12.7907 5.92822 13.2 5.42327 13.2H5.41184C4.9069 13.2 4.49756 12.7907 4.49756 12.2857Z" fill="black"/>
<path d="M5.41184 15.9429C4.9069 15.9429 4.49756 16.3522 4.49756 16.8572C4.49756 17.3621 4.9069 17.7714 5.41184 17.7714H5.42327C5.92822 17.7714 6.33756 17.3621 6.33756 16.8572C6.33756 16.3522 5.92822 15.9429 5.42327 15.9429H5.41184Z" fill="black"/>
<path d="M9.08008 12.2857C9.08008 11.7808 9.48945 11.3715 9.99436 11.3715H10.0058C10.5107 11.3715 10.9201 11.7808 10.9201 12.2857C10.9201 12.7907 10.5107 13.2 10.0058 13.2H9.99436C9.48945 13.2 9.08008 12.7907 9.08008 12.2857Z" fill="black"/>
<path d="M9.99436 15.9429C9.48945 15.9429 9.08008 16.3522 9.08008 16.8572C9.08008 17.3621 9.48945 17.7714 9.99436 17.7714H10.0058C10.5107 17.7714 10.9201 17.3621 10.9201 16.8572C10.9201 16.3522 10.5107 15.9429 10.0058 15.9429H9.99436Z" fill="black"/>
<path d="M13.6626 12.2857C13.6626 11.7808 14.072 11.3715 14.5769 11.3715H14.5883C15.0932 11.3715 15.5026 11.7808 15.5026 12.2857C15.5026 12.7907 15.0932 13.2 14.5883 13.2H14.5769C14.072 13.2 13.6626 12.7907 13.6626 12.2857Z" fill="black"/>
<path d="M14.5769 15.9429C14.072 15.9429 13.6626 16.3522 13.6626 16.8572C13.6626 17.3621 14.072 17.7714 14.5769 17.7714H14.5883C15.0932 17.7714 15.5026 17.3621 15.5026 16.8572C15.5026 16.3522 15.0932 15.9429 14.5883 15.9429H14.5769Z" fill="black"/>
<path fill-rule="evenodd" clip-rule="evenodd" d="M6.28571 0.857143C6.28571 0.38376 5.90195 0 5.42857 0C4.95519 0 4.57143 0.38376 4.57143 0.857143V2H2.57143C1.15127 2 0 3.15127 0 4.57143V19.4286C0 20.8487 1.15127 22 2.57143 22H17.4286C18.8487 22 20 20.8487 20 19.4286V4.57143C20 3.15127 18.8487 2 17.4286 2H15.4286V0.857143C15.4286 0.38376 15.0448 0 14.5714 0C14.0981 0 13.7143 0.38376 13.7143 0.857143V2H6.28571V0.857143ZM18.2857 7.14286V4.57143C18.2857 4.09805 17.9019 3.71429 17.4286 3.71429H2.57143C2.09805 3.71429 1.71429 4.09805 1.71429 4.57143V7.14286H18.2857ZM1.71429 8.85714H18.2857V19.4286C18.2857 19.9019 17.9019 20.2857 17.4286 20.2857H2.57143C2.09805 20.2857 1.71429 19.9019 1.71429 19.4286V8.85714Z" fill="black"/>
</svg>
