<svg width="42" height="42" viewBox="0 0 42 42" fill="none" xmlns="http://www.w3.org/2000/svg">
<path fill-rule="evenodd" clip-rule="evenodd" d="M29.5615 29.2831C29.5615 31.4578 27.7987 33.2206 25.624 33.2206H11.1016C8.92694 33.2206 7.16406 31.4578 7.16406 29.2831V15.0533C7.16406 14.0094 7.57857 13.0083 8.31646 12.2699L15.9275 4.65414C16.666 3.91519 17.6678 3.5 18.7126 3.5H25.624C27.7987 3.5 29.5615 5.26288 29.5615 7.4375V29.2831ZM25.624 30.5956C26.349 30.5956 26.9365 30.0081 26.9365 29.2831V7.4375C26.9365 6.71263 26.3489 6.125 25.624 6.125H18.9397L18.9436 11.3395C18.945 13.5152 17.1817 15.2798 15.006 15.2798H9.78906V29.2831C9.78906 30.0081 10.3767 30.5956 11.1016 30.5956H25.624ZM11.643 12.6548L16.3161 7.97874L16.3185 11.3413C16.319 12.0666 15.7312 12.6548 15.006 12.6548H11.643Z" fill="#56AEF6"/>
<path d="M32.2115 9.94775C32.2115 9.22289 32.7991 8.63525 33.524 8.63525C34.2488 8.63525 34.8365 9.22289 34.8365 9.94775V30.19C34.8365 34.7807 31.1149 38.5025 26.524 38.5025H13.646C12.9211 38.5025 12.3335 37.9148 12.3335 37.19C12.3335 36.4649 12.9211 35.8775 13.646 35.8775H26.524C29.6651 35.8775 32.2115 33.331 32.2115 30.19V9.94775Z" fill="#56AEF6"/>
</svg>
