<svg width="32" height="32" viewBox="0 0 32 32" fill="none" xmlns="http://www.w3.org/2000/svg">
<path d="M27.1429 28.328H21.2429V24.5701C21.2429 21.6741 18.8957 19.3262 16 19.3262C13.1043 19.3262 10.7571 21.6741 10.7571 24.5701V28.328H4.85714C4.20231 28.328 3.67143 27.7972 3.67143 27.1421V13.2168C3.67143 12.8434 3.84715 12.492 4.14572 12.268L15.2886 3.90915C15.7102 3.5929 16.2898 3.5929 16.7114 3.90915L27.8543 12.268L27.9143 12.188L27.8543 12.268C28.1529 12.492 28.3286 12.8434 28.3286 13.2168V27.1421C28.3286 27.7972 27.7977 28.328 27.1429 28.328ZM18.3743 1.69159C16.9673 0.636135 15.0327 0.636135 13.6257 1.69159L2.48285 10.0505C1.48642 10.7979 0.9 11.971 0.9 13.2168V27.1421C0.9 29.3281 2.67166 31.1 4.85714 31.1H12.1429C12.9082 31.1 13.5286 30.4796 13.5286 29.714V24.5701C13.5286 23.2049 14.6351 22.0981 16 22.0981C17.3649 22.0981 18.4714 23.2049 18.4714 24.5701V29.714C18.4714 30.4796 19.0918 31.1 19.8571 31.1H27.1429C29.3283 31.1 31.1 29.3281 31.1 27.1421V13.2168C31.1 11.971 30.5136 10.7979 29.5172 10.0505L18.3743 1.69159Z" fill="#56AEF6" stroke="#56AEF6" stroke-width="0.2"/>
</svg>
