<svg width="336" height="354" viewBox="0 0 336 354" fill="none" xmlns="http://www.w3.org/2000/svg">
<path fill-rule="evenodd" clip-rule="evenodd" d="M91.5773 35.7932C2.96333 79.3182 0.676325 80.4961 0.238325 82.8621C-0.760675 88.2631 0.0613155 88.8521 29.8263 104.083C45.6393 112.174 59.1403 119.241 59.8273 119.786C60.7523 120.52 61.0773 125.937 61.0773 140.596C61.0773 151.497 61.4483 160.644 61.9023 160.925C62.3553 161.205 66.8503 160.108 71.8913 158.487C91.7483 152.101 111.116 151.086 128.577 155.514C139.773 158.354 146.176 161.015 156.664 167.186C161.662 170.127 166.308 172.533 166.989 172.533C167.671 172.533 171.377 170.694 175.226 168.446C192.329 158.457 208.214 154.165 228.077 154.166C242.517 154.167 249.891 155.243 262.299 159.163C266.595 160.52 270.553 161.357 271.094 161.023C271.684 160.658 272.077 152.629 272.077 140.95V121.485L286.327 114.442L300.577 107.398L301.077 122.216L301.577 137.033L297.861 141.224C295.817 143.529 293.849 146.594 293.487 148.034C292.515 151.908 293.616 158.129 295.805 161.134C297.992 164.137 298.487 160.797 290.49 197.033C288.063 208.033 286.077 217.845 286.077 218.838C286.077 221.352 294.949 225.24 303.424 226.44C310.832 227.489 320.445 226.428 325.033 224.056C330.927 221.008 330.952 221.842 324.08 191.624C320.601 176.328 318.071 163.188 318.455 162.423C318.84 161.659 319.806 159.908 320.601 158.533C323.814 152.98 321.864 145.056 316.091 140.198L313.033 137.625L313.305 118.994L313.577 100.363L322.077 95.8452C335.071 88.9382 335.077 88.9331 335.077 85.0331C335.077 82.5521 334.443 81.1671 332.827 80.1151C331.589 79.3101 308.977 68.1111 282.577 55.2291C256.177 42.3461 220.516 24.7902 203.33 16.2152C186.144 7.64019 170.619 0.359194 168.83 0.0351943C166.007 -0.475806 155.793 4.25219 91.5773 35.7932ZM33.6233 181.783C33.0923 183.479 32.3083 333.577 32.8193 335.782C33.5623 338.993 37.8133 338.951 48.4323 335.627C62.3503 331.27 72.2233 329.599 88.0773 328.916C104.697 328.2 117.687 329.983 132.908 335.07C144.904 339.079 151.955 342.708 160.243 349.137C168.132 355.259 170.621 355.112 180.151 347.962C189.748 340.763 199.654 336.032 211.345 333.067C239.558 325.91 271.801 327.517 304.34 337.703C310.859 339.743 311.174 339.755 313.09 338.021C315.016 336.278 315.077 334.868 315.062 292.128C315.053 267.876 315.466 251.638 315.062 251.033C312.944 247.86 303.685 242.325 301.277 244.733C300.39 245.62 300.077 254.963 300.077 280.566C300.077 299.615 299.82 315.457 299.505 315.771C299.191 316.086 296.097 315.056 292.629 313.484C267.66 302.163 233.881 301.815 203.577 312.567C192.772 316.4 187.057 319.215 176.977 325.668C172.797 328.344 169.003 330.533 168.546 330.533C168.09 330.533 164.534 328.341 160.646 325.661C146.488 315.904 129.271 309.19 110.259 306.013C96.6353 303.737 74.0483 304.364 63.0773 307.322C58.9523 308.434 54.9023 309.499 54.0773 309.689C52.7533 309.993 52.6213 303.03 52.9543 250.47C53.1613 217.711 53.0063 189.884 52.6093 188.633C51.2063 184.214 34.7233 178.267 33.6233 181.783ZM203.327 186.753L201.077 187.839V216.113V244.388V248.533C204.577 249.033 207.798 249.033 216.577 249.033C223.251 249.033 230.434 249.871 231.58 249.033C231.58 245.233 231.58 239.533 231.58 213.533C230.957 183.611 231.996 185.5 216.216 185.601C210.365 185.638 204.565 186.157 203.327 186.753ZM159.165 206.927C158.322 207.942 158.086 218.821 158.293 247.008C158.564 283.975 158.663 285.759 160.518 287.114C161.923 288.141 165.58 288.533 173.745 288.533C184.364 288.533 185.114 288.4 186.442 286.283C188.381 283.189 189.856 209.177 188.022 206.967C186.322 204.919 160.861 204.884 159.165 206.927ZM116.277 232.733C115.406 233.604 115.077 240.995 115.077 259.71V285.487L117.571 287.121C119.596 288.448 122.114 288.685 130.98 288.381C147.127 287.828 146.077 289.866 146.077 259.078C146.077 240.854 145.747 233.603 144.877 232.733C144.066 231.922 139.433 231.533 130.577 231.533C121.721 231.533 117.088 231.922 116.277 232.733ZM205.813 263.182C202.686 264.074 201.077 268.907 201.077 277.412C201.077 288.421 201.228 288.533 216.076 288.533C227.693 288.533 227.974 288.48 230.004 285.898C232.914 282.199 233.019 268.919 230.167 265.394C228.403 263.213 227.47 263.02 217.917 262.856C212.23 262.759 206.783 262.906 205.813 263.182Z" fill="#56AEF6"/>
</svg>
